<?xml version="1.0" encoding="UTF-8" standalone="no"?>
<svg width="124px" height="215px" viewBox="0 0 124 215" version="1.1" xmlns="http://www.w3.org/2000/svg" xmlns:xlink="http://www.w3.org/1999/xlink">
    <!-- Generator: Sketch 40.3 (33839) - http://www.bohemiancoding.com/sketch -->
    <title>background copy_short</title>
    <desc>Created with Sketch.</desc>
    <defs></defs>
    <g id="Landing" stroke="none" stroke-width="1" fill="none" fill-rule="evenodd">
        <g transform="translate(-1116.000000, -49.000000)" id="Background">
            <g transform="translate(-152.000000, -228.000000)">
                <rect id="slice-mask" fill="#C51690" x="148" y="0" width="1456" height="582"></rect>
                <path d="M610.019718,453.458209 C610.019718,453.458209 579.072223,474.760376 547.317683,474.760376 C507.260642,474.760376 486.703533,453.458209 486.424373,453.458209 C486.424373,453.458209 465.867264,474.760376 426.207654,474.760376 C386.150612,474.760376 365.593504,453.458209 365.314343,453.458209 C365.314343,453.458209 344.757235,474.760376 305.097625,474.760376 C265.040583,474.760376 244.483475,453.458209 244.204314,453.458209 C244.204314,453.458209 223.647206,474.760376 183.987596,474.760376 C150.204782,474.760376 120.852667,453.458209 120.852667,453.458209 C120.852667,453.458209 102.537176,474.760376 62.4801345,474.760376 L49.0816847,1248.06303 L1258.62891,1248.49065 L1271.65745,475.327198 C1231.60041,475.327198 1213.24946,454.025031 1213.24946,454.025031 C1213.24946,454.025031 1182.30196,475.327198 1150.54742,475.327198 C1110.49038,475.327199 1089.93327,454.025031 1089.65411,454.025031 C1089.65411,454.025031 1069.097,475.327198 1029.43739,475.327198 C989.380351,475.327198 968.823242,454.025031 968.544082,454.025031 C968.544082,454.025031 947.986973,475.327198 908.327363,475.327198 C868.270322,475.327198 847.713213,454.025031 847.434052,454.025031 C847.434052,454.025031 826.876944,475.327199 787.217334,475.327198 C753.43452,475.327198 724.082405,454.025031 724.082405,454.025031 C724.082405,454.025031 706.596108,474.36279 668.427461,475.294201 C628.370671,474.760376 610.019718,453.458209 610.019718,453.458209 Z" id="Path-12-Copy" fill="#00AABE"></path>
                <path d="M1818.06248,453.458209 C1818.06248,453.458209 1787.11498,474.760376 1755.36044,474.760376 C1715.3034,474.760376 1694.74629,453.458209 1694.46713,453.458209 C1694.46713,453.458209 1673.91002,474.760376 1634.25041,474.760376 C1594.19337,474.760376 1573.63626,453.458209 1573.3571,453.458209 C1573.3571,453.458209 1552.79999,474.760376 1513.14038,474.760376 C1473.08334,474.760376 1452.52623,453.458209 1452.24707,453.458209 C1452.24707,453.458209 1431.68996,474.760376 1392.03035,474.760376 C1358.24754,474.760376 1328.89542,453.458209 1328.89542,453.458209 C1328.89542,453.458209 1310.57993,474.760376 1270.52289,474.760376 L1257.12444,1248.06303 L2466.67167,1248.49065 L2479.70021,475.327198 C2439.64317,475.327198 2421.29221,454.025031 2421.29221,454.025031 C2421.29221,454.025031 2390.34472,475.327198 2358.59018,475.327198 C2318.53314,475.327199 2297.97603,454.025031 2297.69687,454.025031 C2297.69687,454.025031 2277.13976,475.327198 2237.48015,475.327198 C2197.42311,475.327198 2176.866,454.025031 2176.58684,454.025031 C2176.58684,454.025031 2156.02973,475.327198 2116.37012,475.327198 C2076.31308,475.327198 2055.75597,454.025031 2055.47681,454.025031 C2055.47681,454.025031 2034.9197,475.327199 1995.26009,475.327198 C1961.47728,475.327198 1932.12516,454.025031 1932.12516,454.025031 C1932.12516,454.025031 1914.63887,474.36279 1876.47022,475.294201 C1836.41343,474.760376 1818.06248,453.458209 1818.06248,453.458209 Z" id="Path-12-Copy-4" fill="#00AABE"></path>
                <path d="M1209.62604,486.936942 C1249.68308,486.936942 1267.99857,458.208955 1267.99857,458.208955 C1267.99857,458.208955 1297.35068,486.936942 1331.1335,486.936942 C1370.79311,486.936943 1391.35022,458.208955 1391.35022,458.208955 C1391.62938,458.208955 1412.18649,486.936942 1452.24353,486.936942 C1491.90314,486.936942 1512.46025,458.208955 1512.46025,458.208955 C1512.73941,458.208955 1533.29651,486.936942 1573.35356,486.936942 C1613.01317,486.936942 1633.57028,458.208955 1633.57028,458.208955 C1633.84944,458.208955 1654.40654,486.936943 1694.46359,486.936942 C1726.21813,486.936942 1757.16562,458.208955 1757.16562,458.208955 C1757.16562,458.208955 1775.51657,486.936942 1815.57362,486.936942 L1815.94353,1255.06152 L1209.62604,1255.24925 L1209.62604,486.936942 Z" id="Path-12-Copy-2" fill="#00CDB7"></path>
            </g>
        </g>
    </g>
</svg>